<svg xmlns="http://www.w3.org/2000/svg" xmlns:xlink="http://www.w3.org/1999/xlink" width="186.731" height="31.226" viewBox="0 0 186.731 31.226">
  <defs>
    <clipPath id="clip-path">
      <rect id="Rectángulo_4345" data-name="Rectángulo 4345" width="186.731" height="31.226" fill="#d53030"/>
    </clipPath>
  </defs>
  <g id="Grupo_54062" data-name="Grupo 54062" transform="translate(0 0)">
    <g id="Grupo_54062-2" data-name="Grupo 54062" transform="translate(0 0)" clip-path="url(#clip-path)">
      <path id="Trazado_71541" data-name="Trazado 71541" d="M206.879,17.8a3.487,3.487,0,0,1,1.032,1.457,4.667,4.667,0,0,1,.261,1.5,4.905,4.905,0,0,1-.335,1.835,4.075,4.075,0,0,1-.945,1.434,4.263,4.263,0,0,1-1.492.923,5.587,5.587,0,0,1-1.976.331,8.9,8.9,0,0,1-1.056-.07,8.035,8.035,0,0,1-1.181-.237,7.04,7.04,0,0,1-1.144-.426,3.218,3.218,0,0,1-.919-.639,3.554,3.554,0,0,1-.075-.462,4.968,4.968,0,0,1-.025-.509,7.877,7.877,0,0,1,.112-1.256,8.763,8.763,0,0,1,.311-1.3h.6c-.016.158-.029.288-.037.391s-.013.193-.013.273a3.008,3.008,0,0,0,.883,2.285,3.1,3.1,0,0,0,2.225.841h.2a3.808,3.808,0,0,0,1.193-.237,2.943,2.943,0,0,0,.982-.592,2.907,2.907,0,0,0,.658-.9,2.712,2.712,0,0,0,.249-1.185,2.437,2.437,0,0,0-.895-1.989l-4.648-4.122a4.085,4.085,0,0,1-1.069-1.5,4.178,4.178,0,0,1-.323-1.528,3.931,3.931,0,0,1,.3-1.492,4.1,4.1,0,0,1,.857-1.315,4.184,4.184,0,0,1,1.392-.935,4.865,4.865,0,0,1,1.926-.355,10.183,10.183,0,0,1,1.057.059,8.326,8.326,0,0,1,1.056.178H207.2v3.221h-.646a2.153,2.153,0,0,0-.746-1.741,2.689,2.689,0,0,0-1.79-.627,3.052,3.052,0,0,0-1.131.2,2.823,2.823,0,0,0-.883.545,2.427,2.427,0,0,0-.572.782,2.232,2.232,0,0,0-.2.935,3.044,3.044,0,0,0,.187.971,2.327,2.327,0,0,0,.758,1.019Zm-18.489,5.14v-.023a2.243,2.243,0,0,0,.895,1.042,2.131,2.131,0,0,0,1.044.308h.422v.616h-6.244v-.616h.422a.916.916,0,0,0,.572-.19.67.67,0,0,0,.249-.569,1.286,1.286,0,0,0-.075-.426l-1.759-4.45-5.729-.013L176.329,23.1V23.08a1.606,1.606,0,0,0-.075.426.689.689,0,0,0,.261.581.937.937,0,0,0,.585.2h.422V24.9h-5.295v-.616h.423a2.134,2.134,0,0,0,1.044-.308,2.258,2.258,0,0,0,.895-1.019h-.025l5.518-12.435q.248-.52.447-.994.174-.4.31-.83a2.379,2.379,0,0,0,.136-.686h.9Zm-4.9-5.4L181.1,11.5l-2.49,6.028Zm-93.317,5.4v-.023a2.243,2.243,0,0,0,.895,1.042,2.133,2.133,0,0,0,1.044.308h.423v.616H86.294v-.616h.422a.916.916,0,0,0,.572-.19.67.67,0,0,0,.249-.569,1.286,1.286,0,0,0-.075-.426L85.7,18.63l-5.729-.013L78.115,23.1V23.08a1.636,1.636,0,0,0-.075.426.689.689,0,0,0,.261.581.937.937,0,0,0,.585.2h.422V24.9H74.013v-.616h.423a2.134,2.134,0,0,0,1.044-.308,2.258,2.258,0,0,0,.895-1.019H76.35l5.518-12.435q.248-.52.447-.994.174-.4.31-.83a2.384,2.384,0,0,0,.137-.686h.9Zm-4.9-5.4L82.888,11.5,80.4,17.526Zm53.365,7.742h.868V10.171a1.2,1.2,0,0,1,.4-.829,1.223,1.223,0,0,1,.87-.355h.646V8.371l-5.394-.024v.616h.646a1.241,1.241,0,0,1,.907.355,1.357,1.357,0,0,1,.411.853V21.162L125.046,7.993h-.572l.124.947q.05.427.087.983t.037,1.149V23.1a1.285,1.285,0,0,1-1.293,1.232h-.646v.616h5.42v-.616h-.646a1.208,1.208,0,0,1-.882-.355,1.352,1.352,0,0,1-.411-.853V12.437ZM163.3,20.807a8.135,8.135,0,0,1-.621,1.22,3.976,3.976,0,0,1-.832.96,3.58,3.58,0,0,1-1.144.628,4.91,4.91,0,0,1-1.578.225H155.87V17.277h3.9a1.026,1.026,0,0,1,.658.3.871.871,0,0,1,.286.651v.545l.884.014V14.757l-.884-.014v.521a.9.9,0,0,1-.286.676,1.077,1.077,0,0,1-.708.3h-3.878V9.484h4.723a1.327,1.327,0,0,1,.832.379,1.092,1.092,0,0,1,.336.805v.616h.819V7.874a6.825,6.825,0,0,1-.744.189q-.373.095-.808.166t-.895.119a8.078,8.078,0,0,1-.832.048h-7.531V9.01h.522a1.346,1.346,0,0,1,.907.332,1.2,1.2,0,0,1,.435.805V23.08a1.418,1.418,0,0,1-.423.912,1.291,1.291,0,0,1-.945.367h-.522v.616h10.9l1.591-4.169Zm-50.17,0a8.2,8.2,0,0,1-.622,1.22,3.991,3.991,0,0,1-.832.96,3.588,3.588,0,0,1-1.144.628,4.91,4.91,0,0,1-1.578.225H105.7V17.277h3.9a1.028,1.028,0,0,1,.658.3.87.87,0,0,1,.286.651v.545l.885.014V14.757l-.885-.014v.521a.894.894,0,0,1-.286.676,1.077,1.077,0,0,1-.708.3h-3.878V11.413h0V9.484H110.4a1.329,1.329,0,0,1,.833.379,1.091,1.091,0,0,1,.335.805v.616h.82V7.874a6.8,6.8,0,0,1-.745.189c-.248.063-.518.119-.808.166s-.589.087-.895.119a8.089,8.089,0,0,1-.832.048h-7.531V9.01h.521a1.348,1.348,0,0,1,.908.332,1.2,1.2,0,0,1,.435.805V23.08a1.421,1.421,0,0,1-.422.912,1.292,1.292,0,0,1-.945.367h-.521v.616h10.9l1.592-4.169Z" transform="translate(-21.441 -2.281)" fill="#d53030"/>
      <path id="Trazado_71542" data-name="Trazado 71542" d="M9.472,3.734c1.008-1.009.778-3.221.778-3.221a3.027,3.027,0,0,0-2.87.432A4.381,4.381,0,0,0,6.6,4.167s1.862.576,2.869-.433" transform="translate(-1.9 -0.096)" fill="#d53030"/>
      <path id="Trazado_71543" data-name="Trazado 71543" d="M3.92,9.993a1.994,1.994,0,0,0,2.2-.144,4.753,4.753,0,0,0,1.064-2.8,2.44,2.44,0,0,0-1.961.6,3.746,3.746,0,0,0-.715.912,5.224,5.224,0,0,0,.169-2.1,4.576,4.576,0,0,0-1.67-2.765A6.356,6.356,0,0,0,1.863,7.552,3.238,3.238,0,0,0,3.92,9.993" transform="translate(-0.53 -1.07)" fill="#d53030"/>
      <path id="Trazado_71544" data-name="Trazado 71544" d="M3.555,18.405a2.343,2.343,0,0,0,2.09-1.3,5.385,5.385,0,0,0-.055-3.3A3.029,3.029,0,0,0,3.9,15.419a4.677,4.677,0,0,0-.343,1.269A5.441,5.441,0,0,0,2.9,14.54,4.153,4.153,0,0,0,.178,12.7c-.054.063-.548,2.813.392,4.383a3.025,3.025,0,0,0,2.985,1.317" transform="translate(0 -3.681)" fill="#d53030"/>
      <path id="Trazado_71545" data-name="Trazado 71545" d="M6.757,26.21a3.17,3.17,0,0,0,1.68-2.5,5.773,5.773,0,0,0-1.4-3.456,4.121,4.121,0,0,0-1.128,2.617A5.579,5.579,0,0,0,6.064,24.4,5.423,5.423,0,0,0,4.5,22.487a4.352,4.352,0,0,0-3.617-.462c-.031.1.563,3.264,2.191,4.412a3.351,3.351,0,0,0,3.683-.227" transform="translate(-0.255 -5.868)" fill="#d53030"/>
      <path id="Trazado_71546" data-name="Trazado 71546" d="M42.331,3.838A4.377,4.377,0,0,0,41.553.617,3.029,3.029,0,0,0,38.684.184s-.229,2.213.778,3.221,2.869.433,2.869.433" transform="translate(-11.2 0)" fill="#d53030"/>
      <path id="Trazado_71547" data-name="Trazado 71547" d="M43.042,7.317a2.44,2.44,0,0,0-1.961-.6,4.744,4.744,0,0,0,1.064,2.8,2,2,0,0,0,2.2.144A3.24,3.24,0,0,0,46.4,7.223a6.356,6.356,0,0,0-1.144-3.858,4.569,4.569,0,0,0-1.67,2.765,5.225,5.225,0,0,0,.169,2.1,3.746,3.746,0,0,0-.715-.912" transform="translate(-11.9 -0.975)" fill="#d53030"/>
      <path id="Trazado_71548" data-name="Trazado 71548" d="M47.867,12.376a4.156,4.156,0,0,0-2.723,1.835,5.441,5.441,0,0,0-.658,2.148,4.677,4.677,0,0,0-.343-1.269,3.032,3.032,0,0,0-1.689-1.613,5.389,5.389,0,0,0-.055,3.3,2.341,2.341,0,0,0,2.09,1.3,3.024,3.024,0,0,0,2.985-1.317c.94-1.57.446-4.32.392-4.383" transform="translate(-12.21 -3.586)" fill="#d53030"/>
      <path id="Trazado_71549" data-name="Trazado 71549" d="M42.866,22.159a5.419,5.419,0,0,0-1.565,1.91,5.556,5.556,0,0,0,.153-1.525,4.119,4.119,0,0,0-1.127-2.617,5.762,5.762,0,0,0-1.4,3.455,3.171,3.171,0,0,0,1.68,2.5,3.355,3.355,0,0,0,3.684.228c1.628-1.149,2.222-4.317,2.191-4.412a4.352,4.352,0,0,0-3.617.462" transform="translate(-11.276 -5.773)" fill="#d53030"/>
      <path id="Trazado_71550" data-name="Trazado 71550" d="M29.57,28.674a5.038,5.038,0,0,0-2.455.887,5.552,5.552,0,0,0,.878-1.407,5.094,5.094,0,0,0,.136-3.3A5.348,5.348,0,0,0,25.1,27.372a4.163,4.163,0,0,0,.467,3.546,2.444,2.444,0,0,0,.21.4,15.455,15.455,0,0,1-6.39,4.345,14.082,14.082,0,0,1-5.928-4.1,2.431,2.431,0,0,0,.215-.409,4.163,4.163,0,0,0,.467-3.546,5.347,5.347,0,0,0-3.027-2.519,5.094,5.094,0,0,0,.136,3.3,5.552,5.552,0,0,0,.878,1.407,5.038,5.038,0,0,0-2.455-.887,5.339,5.339,0,0,0-3.789,1.85c.016.115,2.112,2.862,4.267,2.958a3.285,3.285,0,0,0,2.352-.989,15.219,15.219,0,0,0,4.709,3.6,21.835,21.835,0,0,1-3.58.564l-.741.054L13,38.426l.74-.055a22.3,22.3,0,0,0,5.649-1.131,22.3,22.3,0,0,0,5.679,1.131l.74.055.109-1.481-.741-.054a22.137,22.137,0,0,1-3.6-.557,16.667,16.667,0,0,0,5.153-3.853,3.292,3.292,0,0,0,2.363,1c2.154-.1,4.252-2.843,4.267-2.958a5.337,5.337,0,0,0-3.789-1.85" transform="translate(-1.705 -7.2)" fill="#d53030"/>
    </g>
  </g>
</svg>
